<svg xmlns="http://www.w3.org/2000/svg" viewBox="0 0 114.92 31.79"><defs><style>.cls-1{fill:#fff;}</style></defs><g id="Calque_2" data-name="Calque 2"><g id="Calque_1-2" data-name="Calque 1"><path class="cls-1" d="M29.53,31.31H22.24L16.88,20.14c-2.92,1.59-4.6,5.27-7.57,7.71a17.54,17.54,0,0,1-5.48,3.09,23.8,23.8,0,0,1-3.33.84c-.27,0-.46,0-.49-.09s0-.13.32-.26a19.36,19.36,0,0,0,2.5-1.3A3.51,3.51,0,0,0,4.53,28c-.29-1-2.34-3.27-.24-7.4C5,19.11,5.7,18,6.16,17a15.72,15.72,0,0,0,1-4.26c0-.08,0-.08.07,0,1,1,5,5.11,4.4,9.16A24.46,24.46,0,0,0,16.34,19c1.11-.87,1.83-1.77,3-1.79s1.15.48,2,.6a1.27,1.27,0,0,0,.68-.1c.07,0,.05-.1-.05-.12-1.14-.27-1.42-1.2-2.9-1.2s-2.39,1.22-3.15,1.72l-3.74-7.8C10.59,7,11.06,4.66,14.5,0Z"/><path class="cls-1" d="M114.92,16.18l-3.57-4.24c1.87-.43,3-1.51,3-3.38,0-2.12-1.8-3.19-4.07-3.19h-7.13V16.18h1.89V12.1h4.24l3.26,4.08Zm-9.86-9.13h5.29c1.3,0,2.08.61,2.08,1.64s-.82,1.73-2.08,1.73h-5.29Z"/><path class="cls-1" d="M38.9,5.37,33.32,16.18h2.15l1.18-2.41H43l1.19,2.41h2.18L40.79,5.37ZM37.48,12.1l2.34-4.76,2.34,4.76Z"/><path class="cls-1" d="M56.37,6.8a4.51,4.51,0,0,1,4,1.85l1.53-1a6.51,6.51,0,0,0-5.51-2.53c-4.14,0-6.52,2.71-6.52,5.7s2.38,5.69,6.52,5.69A6.5,6.5,0,0,0,61.89,14l-1.53-1a4.56,4.56,0,0,1-4,1.85c-2.79,0-4.58-1.56-4.58-4s1.79-4,4.58-4"/><path class="cls-1" d="M73.53,6.8a4.53,4.53,0,0,1,4,1.85l1.53-1a6.51,6.51,0,0,0-5.51-2.53C69.4,5.09,67,7.8,67,10.79s2.38,5.69,6.52,5.69A6.51,6.51,0,0,0,79.05,14l-1.53-1a4.56,4.56,0,0,1-4,1.85c-2.79,0-4.58-1.55-4.58-4s1.79-4,4.58-4"/><path class="cls-1" d="M90.69,5.09c-4.14,0-6.53,2.71-6.53,5.7s2.39,5.69,6.53,5.69,6.52-2.71,6.52-5.69-2.37-5.7-6.52-5.7m0,9.7c-2.79,0-4.58-1.57-4.58-4s1.79-4,4.58-4,4.58,1.57,4.58,4-1.79,4-4.58,4"/><path class="cls-1" d="M51.1,24.85a.92.92,0,0,0,.56.66,2.66,2.66,0,0,0,1.45.12c.4-.06.8-.18,1.23-.27,0,.29,0,.61,0,.92a.11.11,0,0,1-.07.09,4.23,4.23,0,0,1-3.58-.14,2,2,0,0,1-1-2.08,2.11,2.11,0,0,1,1.39-1.84,3.23,3.23,0,0,1,2.55,0,1.36,1.36,0,0,1,.85,1.62,1.24,1.24,0,0,1-.84.84,4,4,0,0,1-2.38.11Zm-.07-1a2.87,2.87,0,0,0,1.89.07.42.42,0,0,0,.32-.39.45.45,0,0,0-.27-.43,1.41,1.41,0,0,0-1.56.19A2.87,2.87,0,0,0,51,23.88Z"/><path class="cls-1" d="M42.82,22a2.94,2.94,0,0,1,2,.82,2.24,2.24,0,0,1-1.07,3.71,3.12,3.12,0,0,1-2.19-.13,2.1,2.1,0,0,1-1.32-2.11,2.17,2.17,0,0,1,1.43-2A10.34,10.34,0,0,1,42.82,22Zm0,1.15a1.16,1.16,0,0,0-1.21,1.2,1.17,1.17,0,0,0,1.21,1.23,1.22,1.22,0,0,0,0-2.43Z"/><path class="cls-1" d="M46.25,22.19V20.91h1.32v1.28h1.81v1.07h-1.8v.49c0,.34,0,.69,0,1a.63.63,0,0,0,.61.7,2.82,2.82,0,0,0,.58,0c.19,0,.38-.07.61-.11,0,.36,0,.71,0,1.06,0,0-.07.08-.12.1a3.72,3.72,0,0,1-2,0,1.34,1.34,0,0,1-1-1.3c0-.56,0-1.11,0-1.67v-.31H45.6V22.19Z"/><path class="cls-1" d="M61.79,23.21c-.44-.09-.86-.18-1.28-.23a3.64,3.64,0,0,0-.74,0,.76.76,0,0,0-.3.1c-.23.15-.24.39,0,.52a4,4,0,0,0,.61.23c.44.15.89.27,1.32.44a1,1,0,0,1,.67,1,1.16,1.16,0,0,1-.61,1.1,2.85,2.85,0,0,1-1.64.31c-.55,0-1.09-.16-1.63-.25-.17,0-.21-.12-.2-.28s0-.53,0-.77c.45.1.87.23,1.31.3a5.9,5.9,0,0,0,.94,0,.73.73,0,0,0,.29-.11.23.23,0,0,0,0-.41,2.14,2.14,0,0,0-.44-.18c-.46-.14-.93-.23-1.38-.41A1.23,1.23,0,0,1,58,23a1.17,1.17,0,0,1,.74-.7,4.2,4.2,0,0,1,2-.16c.29,0,.56.11.85.16a.16.16,0,0,1,.15.2Z"/><path class="cls-1" d="M34.64,26.55H33.32V20.33h1.31v3.05C35,22.89,35.52,23,36,23h2.38c-.19.38-.35.73-.54,1.07,0,.06-.15.08-.23.08H35.26c-.49,0-.62.13-.62.61Z"/><path class="cls-1" d="M55,19.48h1.32v5.23c0,.65.23.86.89.8.14,0,.28,0,.46-.07,0,.35,0,.68,0,1,0,0-.07.09-.12.11a3.29,3.29,0,0,1-1.43.07A1.35,1.35,0,0,1,55,25.33a4.36,4.36,0,0,1,0-.51V19.7C55,19.64,55,19.57,55,19.48Z"/><path class="cls-1" d="M39.83,26.56h-1.3V20.33h1.3Z"/></g></g></svg>