<svg xmlns="http://www.w3.org/2000/svg" viewBox="0 0 120.34 32.89"><defs><style>.cls-1{fill:#fff;}</style></defs><g id="Calque_2" data-name="Calque 2"><g id="Calque_1-2" data-name="Calque 1"><path class="cls-1" d="M0,17.07A15.71,15.71,0,1,1,15.72,32.89,15.71,15.71,0,0,1,0,17.07H0m15.71,9.79A9.79,9.79,0,1,0,6,17v.07a9.76,9.76,0,0,0,9.72,9.79"/><path class="cls-1" d="M102.55,23.41H99.12V8.62h3.43Zm.36-19.11a1.91,1.91,0,0,1-.62,1.52,2.25,2.25,0,0,1-3,0A1.94,1.94,0,0,1,98.7,4.3a2,2,0,0,1,.62-1.56,2.14,2.14,0,0,1,1.5-.56,2.1,2.1,0,0,1,1.47.56,2,2,0,0,1,.62,1.56"/><path class="cls-1" d="M117.06,16a4.36,4.36,0,1,1-4.36-4.39A4.36,4.36,0,0,1,117.06,16h0M112.7,8.31a7.69,7.69,0,1,0,7.64,7.75V16a7.68,7.68,0,0,0-7.64-7.69"/><path class="cls-1" d="M44.85,21a13,13,0,0,0,2.41-.17V17.05a6,6,0,0,0-.82-.18,8,8,0,0,0-1.19-.09,9.06,9.06,0,0,0-1.16.09,3.47,3.47,0,0,0-1,.31,2,2,0,0,0-.75.64,1.88,1.88,0,0,0-.28,1,1.82,1.82,0,0,0,.77,1.69,3.88,3.88,0,0,0,2.06.46M44.57,8.25a8.27,8.27,0,0,1,2.83.46A4.47,4.47,0,0,1,49.26,9.9a4.4,4.4,0,0,1,1,1.85,9.66,9.66,0,0,1,.3,2.39v9c-.53.11-1.33.25-2.39.41a24.24,24.24,0,0,1-3.61.24,11,11,0,0,1-2.43-.25,5.44,5.44,0,0,1-1.88-.82A3.83,3.83,0,0,1,39,21.22,5.1,5.1,0,0,1,38.57,19a4.44,4.44,0,0,1,.49-2.15,4.11,4.11,0,0,1,1.35-1.43,5.71,5.71,0,0,1,1.93-.79,10.87,10.87,0,0,1,4.85.07v-.57A4.79,4.79,0,0,0,47.05,13a2.26,2.26,0,0,0-1.44-1.58,3.94,3.94,0,0,0-1.45-.23,13.14,13.14,0,0,0-2.17.17,10.06,10.06,0,0,0-1.62.39L39.94,9a14.39,14.39,0,0,1,1.94-.46,15.84,15.84,0,0,1,2.66-.23"/><path class="cls-1" d="M74.73,21a12.91,12.91,0,0,0,2.41-.17V17.05a5.71,5.71,0,0,0-.82-.18,7.85,7.85,0,0,0-1.19-.09,8.77,8.77,0,0,0-1.15.09,3.53,3.53,0,0,0-1,.31,2,2,0,0,0-.74.64,1.73,1.73,0,0,0-.28,1,1.81,1.81,0,0,0,.76,1.69,3.9,3.9,0,0,0,2.06.46M74.49,8.25a8.37,8.37,0,0,1,2.9.43,4.58,4.58,0,0,1,1.86,1.19,4.52,4.52,0,0,1,1,1.85,9.66,9.66,0,0,1,.3,2.39v9c-.53.11-1.33.25-2.39.41a24.24,24.24,0,0,1-3.61.24,11,11,0,0,1-2.43-.25,5.44,5.44,0,0,1-1.88-.82A3.83,3.83,0,0,1,69,21.19,5.1,5.1,0,0,1,68.56,19a4.49,4.49,0,0,1,.49-2.15,4.11,4.11,0,0,1,1.35-1.43,5.71,5.71,0,0,1,1.93-.79,10.78,10.78,0,0,1,2.33-.24,10.67,10.67,0,0,1,2.52.31v-.56A4.35,4.35,0,0,0,77,13a2.23,2.23,0,0,0-1.43-1.58,4.16,4.16,0,0,0-1.45-.23,13.05,13.05,0,0,0-2.17.17,9.13,9.13,0,0,0-1.62.4l-.43-2.77a14.39,14.39,0,0,1,1.94-.46,15.28,15.28,0,0,1,2.62-.23"/><path class="cls-1" d="M62.7,20.58a7.83,7.83,0,0,1-1,.15,10.94,10.94,0,0,1-1.4.07,3.63,3.63,0,0,1-3-1.29A5.38,5.38,0,0,1,56.28,16a6.14,6.14,0,0,1,.86-3.45,3.07,3.07,0,0,1,2.73-1.28,4.8,4.8,0,0,1,1.6.27,5.53,5.53,0,0,1,1.2.58ZM62.7,0V9.12a10.6,10.6,0,0,0-1.41-.56,6.39,6.39,0,0,0-1.94-.25,6.76,6.76,0,0,0-2.8.55,5.75,5.75,0,0,0-2.06,1.57,7,7,0,0,0-1.28,2.45,10.67,10.67,0,0,0-.44,3.18,9.47,9.47,0,0,0,.52,3.21,6.93,6.93,0,0,0,1.5,2.43,6.77,6.77,0,0,0,2.39,1.52,8.87,8.87,0,0,0,3.14.54,20.71,20.71,0,0,0,3.24-.25A20.36,20.36,0,0,0,66.11,23V2.9A27.75,27.75,0,0,1,62.69,0"/><path class="cls-1" d="M40.52,28c-.08.19-.17.42-.29.69s-.22.59-.33.9h1.23c-.11-.32-.22-.62-.33-.91L40.52,28m1.08,3-.16-.45-.15-.44H39.73l-.15.44-.16.44H38.7c.14-.4.27-.78.4-1.12s.26-.68.38-1,.24-.6.36-.87.24-.55.37-.82h.65l.37.82c.12.27.24.57.37.87l.38,1c.12.34.26.71.4,1.12Z"/><path class="cls-1" d="M44.79,27.77h-.43v1.29h.32a1.67,1.67,0,0,0,.77-.13.56.56,0,0,0,.27-.53.7.7,0,0,0-.07-.31.5.5,0,0,0-.19-.19,1.06,1.06,0,0,0-.3-.1,2.29,2.29,0,0,0-.37,0m0-.59a2.31,2.31,0,0,1,1.26.3,1.05,1.05,0,0,1,.44,1,1.39,1.39,0,0,1-.12.57,1,1,0,0,1-.34.39,1.5,1.5,0,0,1-.54.22,3.64,3.64,0,0,1-.74.07h-.33V31h-.69V27.28a3.08,3.08,0,0,1,.53-.08h.53"/><path class="cls-1" d="M49.05,28c-.09.19-.19.42-.29.69s-.23.59-.34.9h1.24l-.34-.91c-.11-.28-.2-.51-.28-.69m1.12,3L50,30.51c-.06-.14-.11-.29-.16-.44H48.24l-.15.44-.15.44h-.72c.14-.4.28-.78.41-1.12s.25-.68.37-1,.24-.6.36-.87.24-.55.37-.82h.61c.12.28.25.55.37.82s.24.57.36.87l.38,1c.13.33.26.71.41,1.12Z"/><path class="cls-1" d="M53.28,27.77h-.4V29h.33a3.23,3.23,0,0,0,.44,0,.9.9,0,0,0,.32-.09.64.64,0,0,0,.2-.2.6.6,0,0,0,.06-.3.63.63,0,0,0-.06-.38.5.5,0,0,0-.19-.19,1,1,0,0,0-.29-.1,2.28,2.28,0,0,0-.37,0m-.11-.58a2.29,2.29,0,0,1,1.25.3,1.06,1.06,0,0,1,.43.92,1,1,0,0,1-.72,1l.24.3.27.39c.09.13.17.28.26.43s.15.29.22.44H54.4l-.23-.39-.24-.39-.24-.36-.22-.3H52.9V31h-.69V27.28a4.85,4.85,0,0,1,.53-.08h.51"/><polygon class="cls-1" points="59.14 27.22 59.14 27.81 57.97 27.81 57.97 31 57.28 31 57.28 27.81 56.12 27.81 56.12 27.22 59.14 27.22"/><polygon class="cls-1" points="62.8 27.22 63.49 27.22 63.49 31 62.8 31 62.8 29.32 61.16 29.32 61.16 31 60.47 31 60.47 27.22 61.16 27.22 61.16 28.73 62.8 28.73 62.8 27.22"/><path class="cls-1" d="M65.78,29.11a2.1,2.1,0,0,0,.08.56,1.35,1.35,0,0,0,.22.43,1.31,1.31,0,0,0,.35.27,1.17,1.17,0,0,0,1,0,1.31,1.31,0,0,0,.35-.27,1.35,1.35,0,0,0,.22-.43,2,2,0,0,0,0-1.12,1.22,1.22,0,0,0-.22-.44,1.14,1.14,0,0,0-.35-.27,1.08,1.08,0,0,0-1.32.28,1.4,1.4,0,0,0-.22.44,2.1,2.1,0,0,0-.08.56m2.91,0a2.45,2.45,0,0,1-.15.85,1.79,1.79,0,0,1-.4.62,1.6,1.6,0,0,1-.58.37,1.84,1.84,0,0,1-.7.12,2,2,0,0,1-.72-.12,1.69,1.69,0,0,1-.58-.37,1.85,1.85,0,0,1-.36-.6,2.64,2.64,0,0,1,0-1.71,1.94,1.94,0,0,1,.4-.62,1.62,1.62,0,0,1,.59-.38,2,2,0,0,1,1.4,0,1.5,1.5,0,0,1,.58.38,1.79,1.79,0,0,1,.4.62,2.45,2.45,0,0,1,.15.85"/><polygon class="cls-1" points="72.8 27.22 72.8 27.81 71.64 27.81 71.64 31 70.94 31 70.94 27.81 69.78 27.81 69.78 27.22 72.8 27.22"/><polygon class="cls-1" points="74.14 31 74.14 27.22 76.56 27.22 76.56 27.8 74.83 27.8 74.83 28.73 76.38 28.73 76.38 29.31 74.83 29.31 74.83 30.41 76.7 30.41 76.7 31 74.14 31"/><polygon class="cls-1" points="80.54 30.41 80.54 31 78.15 31 78.15 27.22 78.83 27.22 78.83 30.41 80.54 30.41"/><path class="cls-1" d="M92.74,19.06a4.73,4.73,0,0,1-1.17.53,5,5,0,0,1-1.54.22,3.24,3.24,0,0,1-2.45-1,4.53,4.53,0,0,1-1-3.19,5,5,0,0,1,1-3.24,3.46,3.46,0,0,1,2.9-1.23,12.39,12.39,0,0,1,1.36.07,3.81,3.81,0,0,1,.91.16Zm.88-10.5a19.83,19.83,0,0,0-3.17-.25,8.3,8.3,0,0,0-3.08.54,6.82,6.82,0,0,0-2.31,1.5,6.43,6.43,0,0,0-1.44,2.32,8.61,8.61,0,0,0-.49,3,9.23,9.23,0,0,0,.46,3,6.06,6.06,0,0,0,1.3,2.2,5.41,5.41,0,0,0,2,1.32,7.15,7.15,0,0,0,2.59.46,7,7,0,0,0,1.93-.25,9.06,9.06,0,0,0,1.34-.52v2.36a3.33,3.33,0,0,1-.88,2.52,4.14,4.14,0,0,1-2.9.85,12.31,12.31,0,0,1-2.42-.22l-.39-.08a30.34,30.34,0,0,1,1.25,3.15c.53,0,1.06.07,1.5.07q3.7,0,5.51-1.64t1.8-5.18V9.1q-1-.28-2.55-.54"/></g></g></svg>