<svg xmlns="http://www.w3.org/2000/svg" viewBox="0 0 218.91 43.94"><defs><style>.cls-1{fill:#fff;}</style></defs><g id="Calque_2" data-name="Calque 2"><g id="Calque_1-2" data-name="Calque 1"><path class="cls-1" d="M28.39,17.43c.24,1,.51,2,.76,3H24.87l1.74-3a.28.28,0,0,1,.3-.16h1.22C28.26,17.25,28.35,17.25,28.39,17.43Z"/><path class="cls-1" d="M42.53,0H1.41A1.41,1.41,0,0,0,0,1.41V42.54a1.41,1.41,0,0,0,1.41,1.4H42.53a1.41,1.41,0,0,0,1.41-1.4V1.41A1.41,1.41,0,0,0,42.53,0Zm-28,15.19c.06-.12.15-.11.26-.11,1.6,0,3.21,0,4.81,0a1.63,1.63,0,0,1,1.61,1.39A1.67,1.67,0,0,1,20,18.33a1.35,1.35,0,0,1-.28,0H12.81Zm-.72,13.7c-2.24,0-4.48,0-6.79,0,.61-1.1,1.19-2.14,1.76-3.19.08-.15.2-.13.32-.13h4.66a1.68,1.68,0,0,1,1.67,1.64A1.66,1.66,0,0,1,13.83,28.89Zm22.83-5.45c-1.08,0-2.17,0-3.26,0h-.31c.27,1.07.54,2.11.8,3.15s.61,2.36.92,3.54c0,.19,0,.24-.18.24-.91,0-1.83,0-2.74,0-.22,0-.27-.09-.31-.27C31.05,28,30.51,25.87,30,23.75c-.07-.27-.18-.32-.42-.32q-3,0-6,0a.45.45,0,0,0-.45.27C22,25.84,20.8,28,19.65,30.1a.43.43,0,0,1-.45.27c-1.08,0-2.15,0-3.28,0l3.79-6.9H10l.73-1.34c.25-.47.52-.93.76-1.4a.42.42,0,0,1,.45-.26c3,0,6.07,0,9.1,0a.57.57,0,0,0,.58-.36C22.74,18,23.86,16,25,13.86a.45.45,0,0,1,.47-.28h4.8c.23,0,.32.05.38.3.54,2.1,1.1,4.2,1.63,6.3.06.24.16.28.38.28h3.29c.24,0,.33.08.37.28.19.82.38,1.64.6,2.45C36.94,23.43,36.87,23.44,36.66,23.44Z"/><path class="cls-1" d="M217.33,31.86c-.66,2.46-1.33,4.93-2,7.4-.18.66-.71.4-1.1.4-7.39,0-14.78,0-22.17,0-1,0-2,0-3,0-.6,0-.79-.14-.62-.75.6-2.18,1.18-4.38,1.77-6.57a.67.67,0,0,1,.75-.6l26.14,0ZM206,35.13c.5.84.9,1.49,1.27,2.14a.67.67,0,0,0,.7.4c.36-.05.34-.31.39-.56.17-.93.37-1.85.56-2.78.06-.28.22-.59-.26-.65s-.48.11-.58.46A5.33,5.33,0,0,1,207.5,36c-.42-.7-.81-1.36-1.21-2a.65.65,0,0,0-.75-.33c-.33.07-.3.35-.34.6-.18.93-.37,1.85-.56,2.77,0,.24-.23.52.18.59s.56.06.64-.37C205.56,36.64,205.74,36,206,35.13Zm-6.11,2.46c-.5-.66-.68-1.22.21-1.8a1.1,1.1,0,0,0,.14-1.5c-.67-1-1.72-.53-2.62-.6-.63,0-.48.49-.56.85-.16.82-.33,1.63-.51,2.44-.05.26-.31.57.18.68s.58-.1.67-.5c.05-.25.06-.6.48-.63a.77.77,0,0,1,.82.57A.82.82,0,0,0,199.84,37.59Zm8.85,0c.52.13.82.11,1.11-.24a1.46,1.46,0,0,1,2.41.08.53.53,0,0,0,.65.22c.47-.11.11-.41.08-.59-.19-.89-.43-1.76-.64-2.64-.07-.31,0-.67-.48-.73a.83.83,0,0,0-.91.44Zm-6.75-2.33c.05-.63.23-1,.87-.89a6.73,6.73,0,0,0,1.1,0c.25,0,.41-.14.39-.41s-.21-.27-.39-.27a6.46,6.46,0,0,0-2.38.11c-.56.25-.43,1.2-.55,1.86,0,.14-.1.27-.13.41-.37,1.61-.36,1.65,1.28,1.59.5,0,1.42.41,1.45-.34s-.87-.23-1.35-.32c-.31-.07-.57-.06-.55-.48s.11-.58.49-.59.66,0,1,0,.52,0,.55-.37-.34-.27-.53-.29C202.78,35.22,202.38,35.25,201.94,35.25Zm-10.57,2.31c.61.26.91,0,1.23-.42a1.52,1.52,0,0,1,2.22.17.48.48,0,0,0,.67.33c.38-.09.22-.4.16-.63-.2-.88-.4-1.77-.65-2.64-.08-.28-.06-.7-.55-.7a.82.82,0,0,0-.82.4C192.91,35.24,192.14,36.39,191.37,37.56Z"/><path class="cls-1" d="M67,16c0,.08,0,.14,0,.14,4.11,1.06,3.2,6.25.51,8.11a6.86,6.86,0,0,1-3.78,1.3c-2.58.05-5.15,0-7.72.05-.65,0-.72-.23-.63-.77,1-5.54,1.9-11.08,2.79-16.62.11-.66.35-.75.91-.75,2.31,0,4.63,0,6.94.06,2.55.07,4,1.15,4.4,3.14a4.63,4.63,0,0,1-2.91,5.09Zm-7.82,6.79c1.86-.14,3.67.26,5.42-.31a2.66,2.66,0,0,0,1.82-2.92,2.35,2.35,0,0,0-2.54-1.94c-1,0-2.06,0-3.09,0-.64,0-.8.24-.88.78C59.7,19.8,59.45,21.23,59.19,22.79Zm4.2-12.63v0c-.48,0-1,0-1.43,0a.65.65,0,0,0-.81.65c-.19,1.26-.39,2.52-.62,3.78-.07.38,0,.54.42.53A18.68,18.68,0,0,0,64.69,15a2.89,2.89,0,0,0,2.18-1.82,1.91,1.91,0,0,0-1.62-2.88A16.45,16.45,0,0,0,63.39,10.16Z"/><path class="cls-1" d="M121,23.18a5.5,5.5,0,0,1-4,2.2c-3.22.08-5.14-1.7-5.1-4.92A9.84,9.84,0,0,1,114,14.23a6.26,6.26,0,0,1,4.63-2.44,3.47,3.47,0,0,1,3.79,2.38c.12-.33.22-.52.27-.72.1-.51-.09-1.32.46-1.44a8.39,8.39,0,0,1,2.74,0c.41.05.15.58.11.86-.37,2.38-.77,4.76-1.17,7.13-.31,1.88-.61,3.75-1,5.62a6,6,0,0,1-5.41,5.21,9.09,9.09,0,0,1-5-.41,3.81,3.81,0,0,1-2.18-2.2c-.08-.2-.31-.58,0-.69.6-.24,1.27-.31,1.89-.52a1.12,1.12,0,0,1,1.5.55c.83,1.14,2.15,1,3.34.83a2.81,2.81,0,0,0,2.48-2.05C120.69,25.39,120.79,24.4,121,23.18Zm-5.68-3.57a9.55,9.55,0,0,0,.16,1.52,2,2,0,0,0,1.63,1.59,3.35,3.35,0,0,0,3.38-1.08,6,6,0,0,0,1.34-4.06c0-1.56-.57-2.6-1.61-2.95a3.3,3.3,0,0,0-3.62,1.2A6.56,6.56,0,0,0,115.32,19.61Z"/><path class="cls-1" d="M147.69,25.58c-.13-.41.13-.63.25-.87,2.83-5.48,5.69-11,8.51-16.43a1.22,1.22,0,0,1,1.34-.82c1.06.1,2.41-.42,3.1.2s.51,1.89.7,2.88c.91,4.81,1.81,9.61,2.74,14.42.09.49,0,.69-.52.62h-.11c-2.83.12-2.82.12-3.3-2.7a6.6,6.6,0,0,1-.19-1.08c0-.53-.29-.66-.78-.65-1.84,0-3.67,0-5.51,0a.91.91,0,0,0-.92.6c-.52,1.09-1.1,2.15-1.6,3.24a.91.91,0,0,1-1,.61C149.49,25.55,148.58,25.58,147.69,25.58Zm7-7.13c1.52,0,2.8,0,4.09,0,.62,0,.87-.12.75-.79-.39-2.1-.75-4.21-1.16-6.52Z"/><path class="cls-1" d="M207.69,15.59a6.59,6.59,0,0,1,6.91-3.79,7,7,0,0,1,2.53.67,3.33,3.33,0,0,1,1.72,3.72c-.45,2.92-1,5.83-1.46,8.75-.08.5-.21.71-.73.65a5.78,5.78,0,0,0-1.1,0c-.92.08-1.73.07-1.27-1.23-.44-.17-.57.18-.77.34a5.51,5.51,0,0,1-5.08.94,2.84,2.84,0,0,1-2.33-2.47,4.36,4.36,0,0,1,2.18-4.56,13.84,13.84,0,0,1,5-1.17l1.09-.16a1.22,1.22,0,0,0,1.22-1.48,1.46,1.46,0,0,0-1.49-1.45,3,3,0,0,0-2.81.88,1.89,1.89,0,0,1-2.1.63Zm3.42,7.82a3.53,3.53,0,0,0,3.83-3.51c0-.28.16-.62-.37-.52-1.28.26-2.59.43-3.85.78a1.82,1.82,0,0,0-1.38,2.18C209.6,23.35,210.43,23.39,211.11,23.41Z"/><path class="cls-1" d="M188.74,22a6.44,6.44,0,0,1-5.21,3.81,8.79,8.79,0,0,1-2.85,0,4.67,4.67,0,0,1-4-3.84c-.73-3.16.86-8.53,5.57-9.84a7,7,0,0,1,3.9,0c2.58.76,3.75,3,3.36,6.22-.14,1.09-.47,1.51-1.67,1.44-2.42-.12-4.84,0-7.27-.05-.71,0-.87.29-.9.89-.1,2.21,2.06,3.42,4.42,2.47.16-.07.38-.13.47-.26C185.64,21.21,187.13,21.62,188.74,22Zm-5.48-4.51h2.09c1.17,0,1.4-.29,1-1.4a2.28,2.28,0,0,0-1.46-1.52,4,4,0,0,0-4.6,2.42c-.12.43,0,.51.41.51Z"/><path class="cls-1" d="M77.8,25.86c-3.54,0-5.66-2.12-5.62-5.7a8.2,8.2,0,0,1,5.7-8.11c3.48-1,6.57.41,7.37,3.45C86.39,19.82,83.74,25.86,77.8,25.86Zm4.37-8.23c0-1.58-.51-2.67-1.48-3a3.2,3.2,0,0,0-3.51.91,6.43,6.43,0,0,0-1.47,6,2.11,2.11,0,0,0,2.15,1.69,3.4,3.4,0,0,0,3-1.46A6.87,6.87,0,0,0,82.17,17.63Z"/><path class="cls-1" d="M133.43,25.85c-3.82,0-5.9-2.12-5.87-5.64,0-3.93,2.28-7.17,5.66-8.14a7.41,7.41,0,0,1,3.91-.07c2.14.53,3.43,2.18,3.71,4.63a8.19,8.19,0,0,1-5.87,9A9.65,9.65,0,0,1,133.43,25.85Zm4.12-8.18c0-1.57-.49-2.68-1.44-3.08a3.25,3.25,0,0,0-3.6.95,6.54,6.54,0,0,0-1.44,5.94,2.06,2.06,0,0,0,1.69,1.67,3.35,3.35,0,0,0,3.41-1.3A6.77,6.77,0,0,0,137.55,17.67Z"/><path class="cls-1" d="M95.86,23.62a5.36,5.36,0,0,1-4.32,2.16c-2.48,0-4.14-1.67-3.84-4.15.38-3.07,1-6.12,1.46-9.19.07-.45.31-.51.67-.5a18.86,18.86,0,0,0,2,0c.71-.07.69.31.61.79-.38,2.31-.75,4.61-1.16,6.91-.31,1.72,0,2.65,1.06,3.11A3.26,3.26,0,0,0,96,21.44a7.06,7.06,0,0,0,.87-3c.35-1.9.64-3.81.92-5.73.08-.5.25-.73.83-.76,2.59-.09,2.62-.11,2.22,2.41-.56,3.53-1.18,7-1.75,10.58-.08.49-.24.71-.77.68a7.15,7.15,0,0,1-2.18-.06C95.23,25.16,96.41,24.27,95.86,23.62Z"/><path class="cls-1" d="M190.91,25.58c.73-4.35,1.47-8.59,2.14-12.85.1-.69.37-.86,1-.79h.33c1.9,0,1.9,0,1.72,2.12A5.67,5.67,0,0,1,200,11.79c2.75-.31,4.83,1.58,4.48,4.31-.39,3-1,6-1.48,9,0,.21,0,.49-.28.5-.92,0-1.84.05-2.75,0-.49,0-.27-.45-.23-.68.37-2.31.77-4.61,1.16-6.91a7.91,7.91,0,0,0,.13-1.09,2.11,2.11,0,0,0-2.79-2.27,3.55,3.55,0,0,0-2.74,3.07c-.39,2.34-.77,4.68-1.12,7-.1.64-.3,1-1,.9A24.23,24.23,0,0,0,190.91,25.58Z"/><path class="cls-1" d="M171.84,13.7a5.61,5.61,0,0,1,3-1.85c.33,0,.65-.08,1-.1.67,0,1.12.13.78.94a.3.3,0,0,0,0,.1c-.11.64,0,1.48-.4,1.86s-1.18.06-1.79.1a3.39,3.39,0,0,0-3.16,3c-.38,2.3-.76,4.6-1.12,6.91-.1.65-.28,1.06-1.08,1s-1.81.22-2.22-.17.1-1.41.23-2.14c.59-3.56,1.2-7.12,1.76-10.69.08-.51.24-.7.74-.66.33,0,.66,0,1,0C172.2,11.94,172.2,11.94,171.84,13.7Z"/><path class="cls-1" d="M107.42,13.7a5.57,5.57,0,0,1,3-1.85c.32,0,.65-.08,1-.1.67,0,1.12.12.78.93l0,.11c-.11.64,0,1.48-.41,1.86s-1.17.06-1.78.1a3.38,3.38,0,0,0-3.16,3c-.38,2.3-.77,4.6-1.12,6.9-.11.65-.28,1.07-1.08,1s-1.81.22-2.22-.17.1-1.4.22-2.14c.6-3.56,1.2-7.12,1.76-10.68.08-.51.24-.72.75-.67.33,0,.66,0,1,0C107.78,11.94,107.78,11.94,107.42,13.7Z"/><path class="cls-1" d="M164.8,35.7c-.1.51-.21,1-.31,1.58s-.43.44-.76.38-.21-.39-.19-.61.14-.64.19-1,.12-.62-.27-.72a.64.64,0,0,0-.81.4,8.36,8.36,0,0,0-.32,1.38.56.56,0,0,1-.78.51c-.47-.11-.19-.47-.18-.71s.13-.49.15-.74.2-.72-.26-.83a.67.67,0,0,0-.87.6c-.1.43-.18.86-.25,1.29s-.43.42-.75.4-.26-.35-.23-.57.13-.65.19-1c.31-1.56,1-2,2.57-1.53a1.71,1.71,0,0,0,1.2,0C164.11,34.27,164.82,34.76,164.8,35.7Z"/><path class="cls-1" d="M179,36a1.7,1.7,0,0,1-2,1.72c-.54-.1-.91-.2-.88.54,0,.49-.31.61-.73.55-.61-.09-.25-.49-.21-.75.16-.93.4-1.85.53-2.79.09-.61.36-.86.94-.67.32.11.58-.05.86-.06A1.34,1.34,0,0,1,179,36Zm-1,0c0-.37-.17-.71-.62-.73s-.85.33-.89.88.12.74.58.76S177.89,36.57,178,36Z"/><path class="cls-1" d="M183.4,37.58l-.52.09c-1.1.13-1.72-.3-1.79-1.23a1.74,1.74,0,0,1,1.65-1.93,1.56,1.56,0,0,1,.75.12c.44.24,1.21-.6,1.27.15a8.23,8.23,0,0,1-.56,2.76C184.11,37.84,183.68,37.61,183.4,37.58ZM183,35.26a1,1,0,0,0-.9.91.62.62,0,0,0,.72.74.8.8,0,0,0,.83-.82A.7.7,0,0,0,183,35.26Z"/><path class="cls-1" d="M188.77,34.57,186.58,38a1.49,1.49,0,0,1-1.67.77c-.21,0-.5-.05-.43-.36s.13-.51.49-.44c1.06.22.86-.45.74-1s-.27-1.21-.42-1.81c-.08-.28-.27-.59.23-.63s.65,0,.71.48a12.77,12.77,0,0,0,.28,1.34C187.42,35.93,187.2,34.32,188.77,34.57Z"/><path class="cls-1" d="M167.51,37.6c-.19,0-.4.08-.62.1-1,.1-1.46-.28-1.39-1.28,0-.5.17-1,.24-1.5s.43-.42.76-.39.25.34.21.57-.11.65-.19,1-.12.7.32.79a.7.7,0,0,0,.86-.49A12.68,12.68,0,0,0,168,35c.08-.42.34-.51.72-.47s.29.43.25.67c-.09.54-.29,1.06-.33,1.6C168.57,37.52,168.32,37.87,167.51,37.6Z"/><path class="cls-1" d="M153.36,37.6s-.07,0-.1,0c-.67.12-1.42.43-1.87-.35s.06-1.56.16-2.33c.06-.44.36-.39.65-.38.44,0,.29.34.27.56s-.15.57-.17.86-.27.77.27.91a.78.78,0,0,0,1-.65,9.31,9.31,0,0,0,.24-1.28c.05-.43.34-.41.64-.4.5,0,.34.32.28.61-.11.57-.2,1.14-.3,1.72S154.14,37.94,153.36,37.6Z"/><path class="cls-1" d="M150.72,35.93a1.82,1.82,0,0,1-1.93,1.81,1.48,1.48,0,0,1-1.6-1.44,1.84,1.84,0,0,1,1.95-1.8A1.4,1.4,0,0,1,150.72,35.93Zm-1.84,1a.89.89,0,0,0,.86-.92c0-.41-.2-.75-.64-.73a.87.87,0,0,0-.88.93A.62.62,0,0,0,148.88,36.93Z"/><path class="cls-1" d="M145.68,35.2c1.56-1.61,1.56-1.61,2.3-1.63a8.47,8.47,0,0,1-1.32,1.83,2.83,2.83,0,0,0-.85,1.72c0,.47-.31.62-.74.55-.59-.08-.32-.52-.24-.74.39-1-.44-1.71-.61-2.58-.05-.26-.48-.6.06-.78s.68.07.84.47A2.72,2.72,0,0,0,145.68,35.2Z"/><path class="cls-1" d="M172.36,37.74c-.38,0-.74-.07-1-.45a.88.88,0,0,1-.11-.73c.29-.84-.41-1.9.57-2.55.31-.2.77-.45.88.21,0,.26.12.31.35.41.51.22.39.46-.05.69-.91.47-.95.93-.17,1.65a.44.44,0,0,1,.12.5C172.88,37.77,172.56,37.66,172.36,37.74Z"/><path class="cls-1" d="M179.33,37.15c.24-1.11.51-2.21.7-3.32.07-.46.28-.54.66-.5s.28.44.24.67c-.19,1.08-.45,2.15-.62,3.23-.08.51-.38.45-.7.44S179.29,37.4,179.33,37.15Z"/><path class="cls-1" d="M171,33.56c-.26,1.41-.49,2.59-.71,3.77-.08.4-.41.34-.7.34s-.33-.27-.28-.52c.22-1.11.45-2.22.66-3.33.08-.41.33-.52.71-.49S171,33.55,171,33.56Z"/><path class="cls-1" d="M156.28,34.54c.31.5,1-.44,1.23.21s-.68.54-1,.88a2.53,2.53,0,0,0-.43,1.44c-.11.52-.32.7-.8.6s-.15-.55-.13-.77c.05-.62.25-1.21.34-1.82S155.76,34.42,156.28,34.54Z"/><path class="cls-1" d="M175,35.14c-.15.71-.31,1.45-.45,2.21-.08.45-.42.32-.68.32-.46,0-.27-.29-.23-.53.16-.74.33-1.49.45-2.24.07-.45.36-.39.64-.38C175.16,34.55,175,34.87,175,35.14Z"/><path class="cls-1" d="M175.4,33.62a.61.61,0,0,1-.62.51.49.49,0,0,1-.56-.53.55.55,0,0,1,.6-.52A.57.57,0,0,1,175.4,33.62Z"/><path class="cls-1" d="M198.52,34.37c.5,0,1,0,.93.67s-.62.74-1.13.82c-.36.06-.67,0-.61-.5S197.77,34.28,198.52,34.37Z"/><path class="cls-1" d="M210.74,36a2.7,2.7,0,0,1,.68-1.32C212,36.14,212,36.18,210.74,36Z"/><path class="cls-1" d="M194.18,34.56c.42,1.64.42,1.64-.91,1.44Z"/></g></g></svg>