<svg xmlns="http://www.w3.org/2000/svg" viewBox="0 0 128.71 39.96"><defs><style>.cls-1,.cls-2{fill:#fefefe;}.cls-2{font-size:3.66px;font-family:MyriadPro-Regular, Myriad Pro;}</style></defs><g id="Calque_2" data-name="Calque 2"><g id="Calque_1-2" data-name="Calque 1"><path class="cls-1" d="M5,25.39c-.25-.47-.59-.88-.86-1.34s-.71-.36-1.09-.48a3.2,3.2,0,0,1-2.2-2.29.83.83,0,0,1,0-.71c.62,1,1.7,1.4,2.45,2.21-.4-.88-.41-1.94-1.51-2.44A3,3,0,0,1,0,17.25c0-.07,0-.15.08-.37.5,1.18,1.45,1.85,2,2.83l.13.16c.09-.09,0-.17,0-.25-.1-.75-.32-1.47-.43-2.22-.05-.43-.51-.67-.81-1a2.7,2.7,0,0,1-.8-2.23,1.1,1.1,0,0,1,.29-.77c.21,1.09.89,2,1.16,3a16.35,16.35,0,0,0,0-2.32c-.05-.45-.5-.87-.79-1.29A2.58,2.58,0,0,1,.57,10.4a.66.66,0,0,1,.37-.49c.05,1.15.52,2.2.61,3.36,0-1.11.93-1.42,1.62-1.92.11-.08.23-.23.37-.11s0,.27-.07.37a4.15,4.15,0,0,1-.68.87,2.82,2.82,0,0,0-.9,2.94l1.5-1.52A2.34,2.34,0,0,1,3.08,15a4.23,4.23,0,0,1-.39.69,2.64,2.64,0,0,0-.23,3.07l1.21-2.14a4,4,0,0,1-.14,1.84c-.12.45-.25.9-.36,1.36a2.08,2.08,0,0,0,.39,1.9l.72-2.13a3.63,3.63,0,0,1,.25,1.67c0,.2,0,.41-.06.61a2.88,2.88,0,0,0,1.06,2.89L6,22.32a4.87,4.87,0,0,1,.56,2.05,5.23,5.23,0,0,1,0,.68c-.07,1.25.73,1.94,1.69,2.67a16.34,16.34,0,0,1,.05-3A2.56,2.56,0,0,1,9,26c.18.61.33,1.23.45,1.85a2,2,0,0,0,1.25,1.67,7.11,7.11,0,0,1,.9.52,30.3,30.3,0,0,1-.77-3.27,2.17,2.17,0,0,1,1,1c.56.77.86,1.68,1.35,2.48a2.12,2.12,0,0,0,1.34,1,17.15,17.15,0,0,0,6.64.55c.81-.09,1.6-.41,2.43-.51.24,0,.41-.26.56-.46A9,9,0,0,0,25.25,29a6.5,6.5,0,0,1,1.65-2.28A20.32,20.32,0,0,1,26.14,30l-.08.07c.06,0,.1,0,.13,0A2.6,2.6,0,0,0,28.27,28,9.74,9.74,0,0,1,29,25.45a1.63,1.63,0,0,1,.49-.7,14.61,14.61,0,0,1,0,3.1,3,3,0,0,0,1.74-3,5.67,5.67,0,0,1,.55-2.56,22.34,22.34,0,0,1,.48,2.73,3.05,3.05,0,0,0,1.1-2.1,11,11,0,0,1,0-2.87l.12-.47A15.42,15.42,0,0,1,34.23,22a2.42,2.42,0,0,0,.34-2.12c-.11-.77-.47-1.48-.54-2.26,0-.26,0-.52,0-.94A18.56,18.56,0,0,1,35.36,19a2.4,2.4,0,0,0,.07-2.61c-.27-.53-.58-1-.86-1.56a1.59,1.59,0,0,1-.21-.83,10.11,10.11,0,0,1,1.54,1.61c.06.09.1.26.26.19s0-.23.05-.36a4.35,4.35,0,0,0-1.6-3.36A2.39,2.39,0,0,1,34,11a14.13,14.13,0,0,1,1.86,1.27,2.05,2.05,0,0,0-.83-1.9c-.39-.36-.83-.66-1.23-1-.18-.16-.43-.32-.39-.64h0A10.82,10.82,0,0,1,35.67,9.8c-.13-.8.12-1.67,0-2.54a2.06,2.06,0,0,1,.73,2.18,1.41,1.41,0,0,1-.17.46c-.66.95-.06,1.86.06,2.8,0-1,.59-1.8.49-2.79a2.28,2.28,0,0,1,.37,2.55l-.09.16a3.31,3.31,0,0,0-.62,2.94,5.62,5.62,0,0,0,.84-2.12A2.1,2.1,0,0,1,37,16.1c-1,.87-.87,2.06-1.13,3.16.48-.81,1.4-1.27,1.66-2.35a1.43,1.43,0,0,1,.12,1.19,2.73,2.73,0,0,1-1.47,2.08c-1,.42-1.11,1.37-1.47,2.18-.07.05-.12.13-.06.18s.1-.05.15-.09c.65-.65,1.55-1,2-1.89a2.77,2.77,0,0,1-1.8,2.84,2.93,2.93,0,0,0-1.94,1.76s-.09.08,0,.13l.07-.07a5.12,5.12,0,0,0,2-1.36,3.19,3.19,0,0,1-2.17,2.69H33a3.22,3.22,0,0,0-2.49,1.5A4.38,4.38,0,0,0,33,26.91a3.27,3.27,0,0,1-2.92,2.64,7.12,7.12,0,0,0-3.67,1.14l-.28.12a12.6,12.6,0,0,0,4-.71,1.25,1.25,0,0,1-.43.78A4.12,4.12,0,0,1,26,32.13h-.06a6.56,6.56,0,0,0-4.22,0c-.3.08-.6,0-1.09.17,2.42,1.16,4.94,1.75,7,3.22-.05.08-.06.11-.08.12-1,.71-1,.7-2,0a28.24,28.24,0,0,0-6.16-3,1.38,1.38,0,0,0-1,0,20.89,20.89,0,0,0-6.57,3.41,1.38,1.38,0,0,1-1.45-.26c-.1-.23.13-.34.26-.44a7.42,7.42,0,0,1,1.86-1c1.31-.55,2.63-1.07,3.94-1.6a1.88,1.88,0,0,0,.75-.43,8.69,8.69,0,0,1-1.34-.23,6.39,6.39,0,0,0-3.94,0A4.08,4.08,0,0,1,8.11,31a2,2,0,0,1-.61-.94c1.52.82,3.19.43,4.65,1.07-.24-.36-.67-.41-1-.63a5.48,5.48,0,0,0-3.28-.92,3.54,3.54,0,0,1-3-2,1.4,1.4,0,0,1-.16-.4,2.18,2.18,0,0,1,0-.35c.82.9,2,1,2.88,1.47,0,.05.06.18.16.12s0-.15,0-.21c-.42-.42-.82-.86-1.26-1.26a2.13,2.13,0,0,0-1.17-.3,3.42,3.42,0,0,1-2.62-2,1,1,0,0,1-.13-.81,8.63,8.63,0,0,0,2.39,1.62c0,.09.07.24.18.17S5.09,25.47,5,25.39ZM3.4,22.9s0,0,0,0,0,.06.06,0,0,0,0,0Z"/><path class="cls-1" d="M18.65,28.18a13.45,13.45,0,1,1,13.5-13.46A13.45,13.45,0,0,1,18.65,28.18ZM31.78,14.74a13.07,13.07,0,1,0-13,13.05A13.06,13.06,0,0,0,31.78,14.74Z"/><path class="cls-1" d="M116.72,24.38c0,1.35,0,2.69,0,4,0,.56-.27.51-.63.5s-.65.08-.64-.49c0-2.36,0-4.71,0-7.07,0-.44.16-.48.52-.48,1,0,1,0,1.36,1,.44,1.26.89,2.51,1.33,3.77a.46.46,0,0,0,.22.32c.51-1.47,1-2.94,1.53-4.41.16-.5.38-.71.94-.67.85.06.85,0,.85.85,0,2.19,0,4.38,0,6.57,0,.51-.12.64-.63.65s-.69-.14-.68-.68a33.53,33.53,0,0,0-.09-4c-.38,1.08-.8,2.14-1.13,3.23a.65.65,0,0,1-.8.56c-.42,0-.75,0-.91-.54-.3-1.07-.73-2.11-1.1-3.17Z"/><path class="cls-1" d="M50,14.19c.57-1.64,1.1-3.08,1.58-4.54.17-.5.37-.76,1-.71.83.08.84,0,.84.84,0,2.24,0,4.47,0,6.7,0,.64-.34.49-.68.52s-.63,0-.61-.54c0-1.34,0-2.68,0-4.18a3.34,3.34,0,0,0-.58,1.24,17,17,0,0,0-.74,2.18c-.14.55-.52.39-.86.41s-.64.06-.78-.43c-.27-.95-.63-1.87-1-2.81-.05-.16-.07-.35-.23-.46-.2.12-.11.3-.11.44,0,1.25,0,2.5,0,3.75,0,.62-.41.36-.67.38s-.61.15-.6-.39c0-2.42,0-4.83,0-7.25,0-.29.06-.38.37-.39,1.2,0,1.2,0,1.59,1.1C49,11.37,49.47,12.69,50,14.19Z"/><path class="cls-1" d="M61.51,24.9c0-1.18,0-2.37,0-3.55,0-.39.1-.49.48-.47.53,0,1.07,0,1.6,0a2.15,2.15,0,0,1,2,3,.6.6,0,0,0,.19.81,2.73,2.73,0,0,1,.5,2.9,2.18,2.18,0,0,1-2.2,1.32c-.69,0-1.39,0-2.09,0-.37,0-.49-.08-.48-.47C61.53,27.28,61.51,26.09,61.51,24.9Zm2.21,2.77h.37c.79,0,1.12-.35,1.12-1.17s-.33-1.17-1.13-1.17c-1.32,0-1.32,0-1.32,1.33C62.76,27.67,62.76,27.67,63.72,27.67Zm-1-4.56c.2.32-.38,1,.55,1,.75,0,1.19-.37,1.2-1s-.4-.91-1.14-1C62.4,22,62.89,22.73,62.74,23.11Z"/><path class="cls-1" d="M103.66,24.85c0-1.18,0-2.37,0-3.56,0-.32.08-.42.41-.41.8,0,1.6.05,2.4,0a2,2,0,0,1,2.09,2c0,1.33,0,2.66,0,4a2,2,0,0,1-2.05,2c-.8,0-1.61,0-2.4,0-.36,0-.45-.11-.44-.45C103.67,27.27,103.66,26.06,103.66,24.85Zm1.23,0v1.29c0,1.52,0,1.52,1.52,1.5a.83.83,0,0,0,.92-.89q0-1.84,0-3.69c0-.66-.33-.95-1-.95-.37,0-.74,0-1.1,0s-.35.09-.34.35C104.9,23.28,104.89,24.08,104.89,24.88Z"/><path class="cls-1" d="M91.83,13c0-1.17,0-2.33,0-3.5,0-.41.12-.51.51-.5.76,0,1.52,0,2.28,0a2,2,0,0,1,2.1,2c0,1.35,0,2.71,0,4.06a1.94,1.94,0,0,1-2.09,2c-.76,0-1.52,0-2.28,0-.45,0-.53-.13-.52-.55C91.84,15.29,91.83,14.12,91.83,13Zm3.67,0c0-.59,0-1.19,0-1.78s-.33-1-1-1c-.33,0-.66,0-1,0s-.45.09-.44.44c0,1.23,0,2.45,0,3.68,0,1.43,0,1.43,1.41,1.42.73,0,1-.29,1-1C95.51,14.14,95.51,13.56,95.5,13Z"/><path class="cls-1" d="M83,13c0-1.19,0-2.38,0-3.57,0-.58.36-.43.65-.42s.68-.17.65.42c0,.92,0,1.84,0,2.76,0,.36.1.46.45.44a13.19,13.19,0,0,1,1.54,0c.33,0,.41-.1.4-.42,0-.92,0-1.84,0-2.76,0-.63.38-.42.68-.45s.61-.06.6.47c0,2.38,0,4.75,0,7.13,0,.57-.34.43-.64.43s-.67.17-.64-.42c0-.78,0-1.56,0-2.33,0-.3-.08-.4-.38-.38-.53,0-1.07,0-1.6,0-.33,0-.42.08-.41.41,0,.76,0,1.52,0,2.27s-.39.43-.7.45-.63.08-.61-.47C83,15.34,83,14.15,83,13Z"/><path class="cls-1" d="M67.55,24.9c0-1.18,0-2.37,0-3.56,0-.39.11-.48.48-.46.64,0,1.27,0,1.91,0A2.14,2.14,0,0,1,72,23.05c0,1.8,0,3.6,0,5.4,0,.52-.25.49-.59.47s-.71.16-.67-.46,0-1.51,0-2.27c0-.6-.39-.55-.67-.45-.43.16-1.2-.54-1.29.43a14.34,14.34,0,0,0,0,2.27c0,.52-.24.51-.59.48s-.7.17-.67-.46C67.59,27.28,67.55,26.09,67.55,24.9Zm1.24-1.59c0,1.19,0,1.19.79,1.19,1.19,0,1.19,0,1.17-1.23,0-.87-.35-1.1-1.41-1.14s-.41.65-.55,1A.54.54,0,0,0,68.79,23.31Z"/><path class="cls-1" d="M98,24.84c0-1.16,0-2.33,0-3.49,0-.4.11-.49.48-.47a12.2,12.2,0,0,0,1.6,0,2.21,2.21,0,0,1,2.37,2.2c.06,1.83,0,3.68,0,5.52,0,.29-.13.31-.36.32-.9,0-.9,0-.9-.84,0-.63,0-1.27,0-1.9,0-.34-.09-.46-.45-.47-1.51-.05-1.51-.06-1.51,1.46,0,.45,0,.91,0,1.35,0,.61-.4.37-.66.39s-.62.16-.61-.39C98,27.3,98,26.07,98,24.84Zm1.25-1.5v.85c0,.13,0,.32.18.32.57,0,1.22.2,1.67-.09s.07-.84.1-1.28c0,0,0,0,0-.06-.14-.77-.56-1-1.62-.94-.7.07-.18.65-.33,1C99.19,23.16,99.22,23.26,99.22,23.34Z"/><path class="cls-1" d="M97.85,13c0-1.21,0-2.42,0-3.62,0-.32.08-.43.41-.42.57,0,1.15,0,1.72,0a2.19,2.19,0,0,1,2.32,2.18c0,1.84,0,3.68,0,5.52,0,.28-.1.33-.36.34-.9,0-.9.05-.9-.83a15,15,0,0,0,0-1.9c-.14-1-.94-.28-1.41-.46-.31-.12-.57,0-.54.45,0,.75,0,1.51,0,2.26,0,.54-.26.5-.59.47s-.71.18-.69-.44C97.88,15.36,97.85,14.17,97.85,13Zm1.25-1.61c0,.31,0,.61,0,.92,0,.11,0,.28.14.28a5,5,0,0,0,1.7-.08c.31-.12.06-.74.11-1.14a1,1,0,0,0,0-.3c-.17-.71-.63-1-1.63-.84-.61.09-.17.62-.3.92A.65.65,0,0,0,99.1,11.38Z"/><path class="cls-1" d="M86.65,24.91c0-1.19,0-2.37,0-3.56,0-.38.09-.49.48-.47.61,0,1.23,0,1.84,0a2.15,2.15,0,0,1,2.12,2.16c0,1.8,0,3.6,0,5.4,0,.62-.36.43-.67.46s-.62,0-.59-.48c0-.77,0-1.55,0-2.33,0-.28-.08-.38-.38-.4-1.6-.09-1.6-.1-1.6,1.5a8.06,8.06,0,0,0,0,1.1c.08.55-.15.61-.64.63s-.63-.17-.61-.65C86.67,27.16,86.65,26,86.65,24.91Zm1.23-1.58c0,1.19,0,1.19.72,1.19,1.34,0,1.34,0,1.25-1.34,0-.82-.45-1.09-1.57-1-.78,0-.24.64-.39.95C87.85,23.16,87.88,23.25,87.88,23.33Z"/><path class="cls-1" d="M63.12,13c0-1.15,0-2.3,0-3.44,0-.6.26-.56.68-.58s.62.14.6.61c0,.85,0,1.72,0,2.58,0,.35.1.47.45.45a14.23,14.23,0,0,1,1.6,0c.34,0,.41-.11.41-.42,0-.92,0-1.85,0-2.77,0-.57.32-.44.62-.43s.64-.16.64.42c0,2.4,0,4.79,0,7.19,0,.53-.31.43-.59.4s-.7.23-.67-.38c0-.76,0-1.52,0-2.27,0-.4-.12-.5-.49-.47a12,12,0,0,1-1.47,0c-.44,0-.51.16-.5.54,0,.73,0,1.47,0,2.21s-.4.36-.66.38-.62.16-.61-.39C63.14,15.39,63.12,14.18,63.12,13Z"/><path class="cls-1" d="M115,12.92c0-.54,0-1.07,0-1.6A2.38,2.38,0,0,1,117.18,9a2.33,2.33,0,0,1,2.64,2.13,18.25,18.25,0,0,1,0,3.91,2.35,2.35,0,0,1-2.59,2A2.32,2.32,0,0,1,115,14.88c0-.65,0-1.31,0-2Zm1.25.05c0,.54,0,1.07,0,1.6a1.12,1.12,0,0,0,1.06,1.18,1.14,1.14,0,0,0,1.31-1.07c0-1.13,0-2.26,0-3.38a1.14,1.14,0,0,0-1.29-1.09,1.13,1.13,0,0,0-1.08,1.17C116.22,11.91,116.23,12.44,116.23,13Z"/><path class="cls-1" d="M54.38,25c0,.57,0,1.15,0,1.72a2.42,2.42,0,0,1-4.83,0c0-1.19,0-2.38,0-3.56a2.42,2.42,0,0,1,4.83,0C54.4,23.77,54.39,24.36,54.38,25Zm-1.22,0h0c0-.55,0-1.1,0-1.65A1.14,1.14,0,0,0,52,22.13a1.1,1.1,0,0,0-1.19,1.12c0,1.1,0,2.21,0,3.32A1.07,1.07,0,0,0,52,27.67a1.11,1.11,0,0,0,1.18-1.14C53.19,26,53.16,25.47,53.16,24.93Z"/><path class="cls-1" d="M48.29,25a12.38,12.38,0,0,1,0,2,2.3,2.3,0,0,1-2.38,1.94A2.23,2.23,0,0,1,43.51,27a12.34,12.34,0,0,1,0-4.2A2.33,2.33,0,0,1,46.3,20.9a2.46,2.46,0,0,1,2,2.4V25Zm-1.2,0c0-.53,0-1.06,0-1.6a1.22,1.22,0,0,0-2.43-.1c0,1.11,0,2.22,0,3.32a1.22,1.22,0,0,0,2.43-.08C47.11,26,47.09,25.45,47.09,24.94Z"/><path class="cls-1" d="M108.94,13c0-.63,0-1.27,0-1.9A2.39,2.39,0,0,1,110.73,9a2.57,2.57,0,0,1,2.68,1c.11.18.13.29-.06.4s-.46.26-.68.4-.22,0-.31-.1a1.15,1.15,0,0,0-1.4-.48,1.21,1.21,0,0,0-.81,1.3q0,1.47,0,2.94a1.16,1.16,0,0,0,.79,1.19,1.18,1.18,0,0,0,1.29-.3A1.52,1.52,0,0,0,112.5,14c-.06-.33-.46-.16-.69-.14-.5,0-.66-.08-.66-.62s.17-.66.66-.62a8.13,8.13,0,0,0,1.48,0c.42,0,.52.14.5.53s0,1,0,1.53A2.34,2.34,0,0,1,111.3,17a2.31,2.31,0,0,1-2.36-2.34c0-.56,0-1.11,0-1.66Z"/><path class="cls-1" d="M69.28,13c0-1.19,0-2.37,0-3.56,0-.35.1-.44.45-.44,1.19,0,2.38,0,3.56,0,.58,0,.44.34.43.63s.17.67-.42.64c-.77,0-1.55,0-2.33,0-.33,0-.48.06-.46.43a10.3,10.3,0,0,1,0,1.47c0,.37.07.52.47.49s.94,0,1.41,0,.42.36.43.65.1.69-.45.64-.86,0-1.29,0h-.19c-.81.27-.19.92-.35,1.37-.08.24-.13.58.37.56.8,0,1.6,0,2.4,0,.59,0,.4.38.41.66s.12.59-.42.58c-1.18-.05-2.38,0-3.56,0-.42,0-.47-.14-.46-.49C69.29,15.33,69.28,14.14,69.28,13Z"/><path class="cls-1" d="M109.82,24.89c0-1.19,0-2.38,0-3.56,0-.34.08-.46.44-.45,1.2,0,2.41,0,3.62,0,.68,0,.32.48.37.74s.09.56-.39.53c-.8,0-1.6,0-2.4,0-.32,0-.42.08-.4.41,0,.63-.21,1.43.1,1.84s1.14.13,1.74.12.45.37.47.69,0,.65-.48.61-1,0-1.48,0c-.26,0-.39.07-.35.34a.56.56,0,0,1,0,.13c0,1.46,0,1.46,1.43,1.46h1c.79,0,1,.23.79,1-.05.26-.21.19-.36.2-1.23,0-2.46,0-3.69,0-.34,0-.4-.12-.4-.42C109.83,27.3,109.82,26.09,109.82,24.89Z"/><path class="cls-1" d="M38,24.86c0-1.18,0-2.37,0-3.56,0-.3.05-.43.4-.42q1.82,0,3.63,0c.3,0,.42.06.42.4,0,.86,0,.86-.81.86-.68,0-1.36,0-2,0-.3,0-.38.09-.37.38,0,.55,0,1.11,0,1.66,0,.26.08.35.35.34.51,0,1,0,1.54,0s.3.46.34.71.14.63-.36.57h-.25c-.52,0-1.22-.22-1.52.11s-.08,1-.09,1.48a5.65,5.65,0,0,0,0,.92c.07.5-.1.64-.62.64s-.65-.12-.63-.64C38,27.16,38,26,38,24.86Z"/><path class="cls-1" d="M95.82,22.85c-.5-.66-1-.87-1.53-.68a1.38,1.38,0,0,0-.84,1.43v2.64a1.27,1.27,0,0,0,.8,1.37,1.11,1.11,0,0,0,1.44-.49c.1-.17.19-.12.33-.05,1,.44,1,.75.13,1.39a2.41,2.41,0,0,1-3.81-1.32,12,12,0,0,1,0-4.44,2.17,2.17,0,0,1,1.81-1.77,2.4,2.4,0,0,1,2.47.86c.28.33.28.52-.13.7A5.37,5.37,0,0,0,95.82,22.85Z"/><path class="cls-1" d="M57.3,13c0-.6,0-1.19,0-1.78A2.46,2.46,0,0,1,59.07,9a2.6,2.6,0,0,1,2.67.93c.2.28.13.4-.13.56-.42.27-.76.49-1.18,0a.93.93,0,0,0-1.18-.15,1.07,1.07,0,0,0-.7,1c0,1.09,0,2.17,0,3.26a1.09,1.09,0,0,0,.75,1.08,1.15,1.15,0,0,0,1.25-.25c.13-.11.15-.44.42-.32a4.9,4.9,0,0,1,.88.53c.13.1,0,.21-.09.31a2.53,2.53,0,0,1-2.7,1,2.45,2.45,0,0,1-1.75-2.12c0-.62,0-1.23,0-1.84Z"/><path class="cls-1" d="M123.14,20.92c1.35-.1,1.35-.1,1.91,1l.9,1.79c.42-.83.79-1.58,1.17-2.32a1.32,1.32,0,0,1,1.48-.51c.23.13,0,.27,0,.4-.57,1.14-1.13,2.29-1.72,3.43a2.46,2.46,0,0,0-.28,1.22c0,.84,0,1.68,0,2.52,0,.62-.37.42-.67.45s-.67,0-.58-.48c.44-2.46-.58-4.55-1.74-6.6C123.44,21.55,123.3,21.24,123.14,20.92Z"/><path class="cls-1" d="M75,13c0-1.17,0-2.34,0-3.5,0-.61.3-.51.67-.54s.59.09.58.56c0,1.89,0,3.77,0,5.66,0,.53.16.65.66.62.71,0,1.44,0,2.15,0,.54,0,.43.33.4.61s.23.7-.38.68c-1.21,0-2.42,0-3.63,0-.35,0-.4-.15-.4-.44C75,15.41,75,14.2,75,13Z"/><path class="cls-1" d="M73.26,24.93c0-1.19,0-2.37,0-3.56,0-.59.33-.46.67-.49s.58,0,.58.49c0,1.93,0,3.85,0,5.78,0,.47.13.59.58.57.72,0,1.44,0,2.16,0,.52,0,.51.26.47.61s.2.72-.44.69c-1.16,0-2.34,0-3.5,0-.4,0-.48-.14-.48-.5C73.27,27.31,73.26,26.12,73.26,24.93Z"/><path class="cls-1" d="M58.43,25.52c0,1,0,1.93,0,2.88,0,.64-.33.49-.68.52s-.6,0-.59-.54c0-1.93,0-3.85,0-5.78,0-.37-.08-.52-.47-.47s-.5,0-.74,0c-.54.09-.7-.1-.67-.65s.07-.63.59-.62c1.31.05,2.63,0,3.94,0,.66,0,.38.43.41.7s.11.61-.42.57-1.1-.22-1.34.09-.07.9-.08,1.37Z"/><path class="cls-1" d="M78.76,24.92c0-1.16,0-2.33,0-3.5,0-.5.17-.58.59-.54s.69-.11.68.52c-.06,1.92,0,3.85,0,5.77,0,.42.07.57.52.55.76,0,1.52,0,2.28,0s.37.44.4.72.11.6-.42.58c-1.19-.05-2.38,0-3.57,0-.35,0-.45-.1-.44-.44C78.78,27.34,78.76,26.13,78.76,24.92Z"/><path class="cls-1" d="M103.53,13c0-1.21,0-2.41,0-3.62,0-.61.35-.44.67-.46s.6-.06.59.47c0,1.94,0,3.88,0,5.83,0,.44.13.55.55.53.76,0,1.52,0,2.27,0s.37.42.38.68.17.63-.38.62q-1.81,0-3.63,0c-.38,0-.43-.15-.42-.47C103.54,15.41,103.53,14.23,103.53,13Z"/><path class="cls-1" d="M90.44,13c0,1.17,0,2.34,0,3.5,0,.57-.32.46-.62.45s-.7.18-.69-.45q0-3.55,0-7.13c0-.56.32-.46.62-.44s.71-.18.69.44C90.41,10.62,90.44,11.83,90.44,13Z"/><path class="cls-1" d="M54.74,12.94c0-1.19,0-2.38,0-3.56,0-.6.37-.4.65-.41s.64-.15.63.43q0,3.58,0,7.18c0,.65-.44.37-.71.4s-.59.09-.57-.42C54.77,15.35,54.74,14.14,54.74,12.94Z"/><path class="cls-1" d="M2.11,11.12c-1-1.76-1.13-2.93,0-3.93-.13,1.06.16,2.08,0,3.17.35-1.16,1.41-1.22,2.26-1.6C3.82,9.75,2.68,10.1,2.11,11.12Z"/><path class="cls-1" d="M34.28,6.9c.29.22.14.67.47.87l.06.07c.06,0,0-.08,0-.12-.12-.82-.23-1.65-.35-2.47.93.39,1.21,2,.38,3.23-.61-.72-1.62-.87-2.18-1.72.45.13.9.24,1.34.4s.35,0,.3-.27Z"/><path class="cls-1" d="M5.1,6.81c-.58.81-1.61,1-2.24,1.7-.72-1.44-.56-2.67.41-3.3A19,19,0,0,1,2.88,8C3.35,7,4.3,7.05,5.1,6.81Z"/><path class="cls-1" d="M33.37,5,33,3.32c1.06.75,1,1.72.76,2.85-.62-.55-1.47-.61-2.08-1.23l1.58.16a.47.47,0,0,0,.28.41C33.59,5.28,33.47,5.14,33.37,5Z"/><path class="cls-1" d="M6.25,4.91c-.74.68-1.61.68-2.22,1.23C3.64,5,3.86,3.89,4.71,3.43c-.08.39-.14.74-.23,1.07a9.92,9.92,0,0,0-.27,1C4.75,5,5.42,5,6.25,4.91Z"/><path class="cls-1" d="M5.21,4.34c-.07-1,0-1.89,1-2.46L5.53,3.64a4.18,4.18,0,0,1,1.86-.15C6.63,4,5.86,3.92,5.21,4.34Zm.28-.62s0,0,0,0,0,.06.08,0a.11.11,0,0,0,0,0Z"/><path class="cls-1" d="M31.53,1.91c.89.48,1.11,1,1,2.4-.65-.38-1.4-.38-2.19-.8a5.24,5.24,0,0,1,1.55,0c.08,0,.17.15.26,0s0-.22-.05-.33C31.91,2.85,31.74,2.44,31.53,1.91Zm.78,1.88-.07-.1s-.06.06-.05.09,0,.06.06.1Z"/><path class="cls-1" d="M7.09,2.26a2.57,2.57,0,0,1,1.23,0c-.56.43-1.2.18-1.67.54-.15-.95.13-1.55.87-1.83-.2.41-.38.79-.57,1.16a.64.64,0,0,1-.1.13l0,.13.12-.05Z"/><path class="cls-1" d="M29.31.92,28.79,0c.69.28.78.43,1,1.46l-1.51-.15c.32-.3.68-.19,1-.32l.14.1.13.05,0-.13Z"/><path class="cls-1" d="M8.34,1.09a2.19,2.19,0,0,1,1.21.23,3.52,3.52,0,0,1-.74.1c-.27,0-.65.24-.77-.06A1,1,0,0,1,8.31.45,1.11,1.11,0,0,1,8.83,0C8.88.46,8.47.67,8.34,1.09Zm-.11.13,0,0,0,0,0,0Z"/><path class="cls-1" d="M30.82,2.34l.44.37a3.79,3.79,0,0,1-1.74-.43l1.19-.18h0c-.15.18,0,.21.13.26Z"/><path class="cls-1" d="M30.71,2.1,30.22,1h0a1.2,1.2,0,0,1,.89,1.11c0,.21-.16.18-.28.23h0c.08-.15,0-.22-.13-.26Z"/><path class="cls-1" d="M10.5.46H9.6c-.19,0-.21-.14-.16-.25s.08.12.21.06S10.16.22,10.5.46Z"/><path class="cls-1" d="M28.51.32a3.16,3.16,0,0,1-1.19.16C27.69.2,27.69.2,28.51.32Z"/><path class="cls-1" d="M35.08,8.73h0l0,0-.06,0Z"/><path class="cls-1" d="M33.42,8.73l-.07,0h0a.08.08,0,0,1,0,.05Z"/><path class="cls-1" d="M30.22,1l0,0v0l0,.07Z"/><path class="cls-1" d="M34.29,6.89l-.06,0,.05,0Z"/><path class="cls-1" d="M5,25.39c.07.08.23.17.07.27s-.15-.08-.18-.17Z"/><path class="cls-1" d="M2.18,19.62c.06.08.12.16,0,.25l-.13-.16Z"/><path class="cls-1" d="M34.84,22.45c-.05,0-.07.16-.15.09s0-.13.06-.18Z"/><path class="cls-1" d="M7.7,28.25c.07.06.11.16,0,.21s-.11-.07-.16-.12Z"/><path class="cls-1" d="M26.19,30c0,.07-.07.07-.13,0l.08-.07Z"/><path class="cls-1" d="M3.4,22.9h0s0,0,0,0,0,0-.06,0S3.39,22.91,3.4,22.9Z"/><path class="cls-1" d="M33.18,25.22l-.07.07c-.08-.05,0-.09,0-.13Z"/><path class="cls-1" d="M34.8,7.72c.06,0,.07.08,0,.12l-.06-.07A.12.12,0,0,0,34.8,7.72Z"/><path class="cls-1" d="M33.37,5c.1.15.22.29.14.52a.47.47,0,0,1-.28-.41Z"/><path class="cls-1" d="M5.49,3.72h0a.11.11,0,0,1,0,0c0,.06-.06,0-.08,0S5.48,3.74,5.49,3.72Z"/><path class="cls-1" d="M32.31,3.79l-.06.09s-.06-.07-.06-.1,0-.06.05-.09Z"/><path class="cls-1" d="M6.94,2.36l-.12.05,0-.13Z"/><path class="cls-1" d="M6.85,2.28A.64.64,0,0,0,7,2.15l.13.11-.14.1Z"/><path class="cls-1" d="M29.31.92l.11.13a.76.76,0,0,0-.09.09L29.19,1Z"/><path class="cls-1" d="M29.42,1.05l0,.13-.13-.05Z"/><path class="cls-1" d="M8.23,1.22l0,0,0,0,0,0Z"/><path class="cls-1" d="M30.7,2.09c.15,0,.21.11.13.26C30.72,2.3,30.55,2.27,30.7,2.09Z"/><path class="cls-1" d="M18.64,14.16c1.41.13,2.8.27,4.19.38.41,0,.58.17.64.62.18,1.33.42,2.67.66,4a.48.48,0,0,1-.26.59c-1.3.75-2.59,1.52-3.87,2.29a.46.46,0,0,1-.64-.08q-1.56-1.41-3.12-2.79a.41.41,0,0,1-.11-.58c.63-1.36,1.26-2.72,1.86-4.08C18.14,14.17,18.33,14.08,18.64,14.16Zm1.9,1.35a2,2,0,0,1-2.44,1.36,1.93,1.93,0,0,1,.53,2.74,1.93,1.93,0,0,1,2.77.33,2,2,0,0,1,1.19-2.55A2,2,0,0,1,20.54,15.51Z"/><path class="cls-1" d="M10.52,8.59c0-.72.09-1.46.09-2.19A.64.64,0,0,1,11,5.75c1.28-.62,2.54-1.26,3.81-1.89a.58.58,0,0,1,.62,0c.72.4,1.45.78,2.18,1.15.27.14.29.27.11.51-.77,1-1.53,2-2.27,3.06a.76.76,0,0,1-.63.31c-1.25.11-2.49.21-3.74.35C10.62,9.26,10.36,9.17,10.52,8.59Z"/><path class="cls-1" d="M7.49,14.54c.74-.26,1.1.16,1.4.85.53,1.18,1.14,2.32,1.72,3.47a1.07,1.07,0,0,1,.12.82c-.18.74-.35,1.47-.5,2.21-.08.35-.24.37-.57.32a2.46,2.46,0,0,1-2-1.52,14.06,14.06,0,0,1-1.48-5.35c0-.65.19-.83.77-.8C7.09,14.55,7.25,14.54,7.49,14.54Z"/><path class="cls-1" d="M25.86,4.6a.73.73,0,0,1,.49.22A12.68,12.68,0,0,1,30.1,9.47c.29.61-.2.95-.43,1.37s-.5,0-.77,0a4.18,4.18,0,0,1-3.53-2.7,11,11,0,0,0-1.15-1.88c-.27-.39-.19-.6.21-.81S25.41,4.87,25.86,4.6Z"/><path class="cls-1" d="M11.85,19.07c-.6.22-.93-.14-1.21-.77-.53-1.18-1.13-2.32-1.73-3.47a1.11,1.11,0,0,1-.06-1q.74-1.92,1.41-3.87a.65.65,0,0,1,.66-.49c1.29-.09,2.58-.21,3.86-.34a.63.63,0,0,1,.74.36c.71,1.37,1.45,2.71,2.2,4.06a.77.77,0,0,1,0,.79c-.63,1.34-1.25,2.68-1.85,4a.67.67,0,0,1-.68.48C14.14,18.9,13.06,19,11.85,19.07Zm0-.87L14.75,18a.57.57,0,0,0,.57-.37c.49-1.06,1-2.11,1.5-3.16a.64.64,0,0,0,0-.63c-.63-1.24-1.25-2.48-1.87-3.73a.48.48,0,0,0-.56-.33c-1,.12-2,.22-3.06.32a.65.65,0,0,0-.62.48c-.47,1.11-.95,2.21-1.45,3.31a.79.79,0,0,0,.05.8c.54,1,1.07,1.93,1.58,2.91C11.1,18.06,11.34,18.36,11.81,18.2Z"/><path class="cls-1" d="M31.31,14.64c-.06.71-.1,1.24-.15,1.77a2.16,2.16,0,0,1-.59,1.31c-.7.79-1.37,1.63-2,2.47a.59.59,0,0,1-.76.26c-.94-.29-1.9-.54-2.85-.79a.6.6,0,0,1-.53-.56c-.21-1.42-.46-2.83-.7-4.24a.76.76,0,0,1,.15-.63q1.27-1.74,2.52-3.49a.41.41,0,0,1,.56-.19c.77.25,1.56.48,2.35.72.1,0,.24.05.27.12C30.18,12.5,31.31,13.37,31.31,14.64ZM27.1,11.32c-.3,0-.37.16-.47.3-.69,1-1.36,2-2.05,2.91a1,1,0,0,0-.18.8c.17,1.07.35,2.14.48,3.21,0,.35.22.44.5.5.7.14,1.41.28,2.1.45a.5.5,0,0,0,.63-.2c.82-1.13,1.64-2.25,2.47-3.37a.58.58,0,0,0,.07-.62c-.39-1-.77-2-1.14-3-.06-.16-.09-.35-.27-.4Z"/><path class="cls-1" d="M22.91,14.26c-1.49-.13-2.92-.27-4.35-.38A.64.64,0,0,1,18,13.5q-1.12-2.12-2.29-4.21a.47.47,0,0,1,0-.6c.77-1,1.54-2.07,2.3-3.11a.59.59,0,0,1,.62-.28c1.55.18,3.1.34,4.65.5a.66.66,0,0,1,.53.35c.76,1.26,1.52,2.52,2.31,3.77a.55.55,0,0,1,0,.71c-.82,1.11-1.63,2.21-2.41,3.34A.66.66,0,0,1,22.91,14.26Zm-.4-.71c.69,0,.69,0,1.17-.66s1-1.53,1.57-2.28a.58.58,0,0,0,0-.77c-.67-1-1.31-2.08-2-3.13a.61.61,0,0,0-.52-.35c-1.31-.11-2.62-.23-3.92-.36a.62.62,0,0,0-.66.32c-.53.8-1.07,1.6-1.63,2.38a.59.59,0,0,0,0,.72c.58,1.13,1.15,2.27,1.7,3.41a.74.74,0,0,0,.66.45C20.07,13.35,21.22,13.45,22.51,13.55Z"/><path class="cls-1" d="M15.5,19.13c.25-.06.37.09.51.21,1.07,1,2.13,1.92,3.21,2.86a.56.56,0,0,1,.2.64c-.17.74-.32,1.48-.45,2.23a.65.65,0,0,1-.61.62c-.85.15-1.69.35-2.53.55-.23.05-.56,0-.56.41,0,.2-.18.09-.28.06a12.06,12.06,0,0,1-3.32-1.58c-.35-.24-.38-.66-.58-1a3.93,3.93,0,0,1-.36-3.33c.43-1.41.34-1.43,1.85-1.51C13.57,19.26,14.55,19.18,15.5,19.13Zm-2.19.9H11.72a.4.4,0,0,0-.45.31c-.42,1.23-.81,2.46.16,3.63a2.59,2.59,0,0,1,.28.55.61.61,0,0,0,.33.34l2.29,1.06a.83.83,0,0,0,.54,0c.92-.23,1.83-.48,2.75-.68a.55.55,0,0,0,.48-.53c.39-2.07.4-2.07-1.2-3.43a2.48,2.48,0,0,1-.42-.36A2.89,2.89,0,0,0,13.31,20Z"/><path class="cls-1" d="M28.19,22.55a.67.67,0,0,1-.23.69,13.17,13.17,0,0,1-5.49,3.5c-.43.14-.55-.18-.83-.28-.61-.22-1.22-.46-1.86-.63s-.7-.36-.52-.89a6.49,6.49,0,0,0,.31-1.44A1.75,1.75,0,0,1,20.65,22c1.13-.6,2.2-1.27,3.29-1.93a1,1,0,0,1,.92-.12c.92.28,1.85.54,2.78.77a.56.56,0,0,1,.51.67A9.21,9.21,0,0,0,28.19,22.55ZM24.56,20.5a.7.7,0,0,0-.61.16A16.2,16.2,0,0,1,22,21.84a3.48,3.48,0,0,0-2.18,3,.14.14,0,0,1,0,.06c-.15.29,0,.43.25.56.66.32,1.33.64,2,1a.65.65,0,0,0,.73,0c1.13-.67,2.26-1.34,3.39-2a.86.86,0,0,0,.44-.56c.19-.73.39-1.46.6-2.18.05-.19.12-.37-.15-.44Z"/><path class="cls-1" d="M17,2.34c-.45.77-.41.71.24,1.2a6.72,6.72,0,0,0,3.63,1.12,7.15,7.15,0,0,1,1.22.16,2.58,2.58,0,0,0,2.44-.58c.42-.35.76-.3,1.11.15-.58.35-1.16.7-1.73,1.06a.87.87,0,0,1-.59.08L18.54,5a2.81,2.81,0,0,1-1-.42c-.5-.26-1-.5-1.47-.79-.22-.13-.69-.15-.59-.48s.3-.83.84-.87C16.51,2.44,16.71,2.39,17,2.34Z"/><path class="cls-1" d="M9.72,7.76a6.29,6.29,0,0,0,0-1.5A.28.28,0,0,1,10,5.88c.21,0,.43,0,.39.34-.19,1.32.07,2.69-.46,4S9,12.59,8.58,13.79c-.11.31-.26.47-.61.45s-.94,0-1.41,0c-.15,0-.35.07-.38-.19s.13-.32.33-.34l.12,0c1.06,0,1.52-.6,1.83-1.52s.69-1.66,1.06-2.48A9.12,9.12,0,0,0,9.72,7.76Z"/><path class="cls-1" d="M21.58,26.82a4.25,4.25,0,0,1-1.9.43,11.78,11.78,0,0,1-3.6-.24c-.18,0-.47,0-.46-.3s.27-.2.44-.24a11.62,11.62,0,0,0,1.55-.36C19.08,25.53,20.28,26.37,21.58,26.82Z"/><path class="cls-1" d="M28.56,22.51a2.75,2.75,0,0,1,.8-2.93c.5-.5.92-1.08,1.41-1.59A11.36,11.36,0,0,1,28.56,22.51Z"/><path class="cls-1" d="M10.26,5.57A1.19,1.19,0,0,1,10.9,5c1.1-.54,2.18-1.12,3.3-1.62.43-.18.57-.8,1.21-.68a1.47,1.47,0,0,1-.73.89L10.83,5.54C10.65,5.62,10.48,5.77,10.26,5.57Z"/><path class="cls-1" d="M10.87,24.47a9.16,9.16,0,0,1-2.19-2.16c1.47.15,1.83.52,2.18,2.17Z"/><path class="cls-1" d="M30.39,10.18a9.22,9.22,0,0,1,.69,3,16.76,16.76,0,0,1-1.14-1.78C29.74,10.94,30.2,10.64,30.39,10.18Z"/><path class="cls-1" d="M10.86,24.48l.06,0h0s0,0,0,0Z"/><text class="cls-2" transform="translate(13.16 39.05)">FRANCE</text></g></g></svg>